<?xml version="1.0" encoding="UTF-8"?>
<svg width="100px" height="100px" viewBox="0 0 100 100" version="1.1" xmlns="http://www.w3.org/2000/svg" xmlns:xlink="http://www.w3.org/1999/xlink">
    <!-- Generator: Sketch 53.2 (72643) - https://sketchapp.com -->
    <title>iPhone 8 Copy 3</title>
    <desc>Created with Sketch.</desc>
    <g id="iPhone-8-Copy-3" stroke="none" stroke-width="1" fill="none" fill-rule="evenodd">
        <path d="M50.001,0 C22.387,0 0,22.386 0,49.999 C0,77.613 22.387,100 50.001,100 C77.615,100 100,77.613 100,49.999 C100,22.386 77.615,0 50.001,0 Z" id="Path" fill="#E5AD27" fill-rule="nonzero"></path>
        <g id="noun_Wheat_15631956744e54c2cbf52fe4d3bd9d754530b6726abb7e52308232480435cf01ebfc8b" transform="translate(21.000000, 20.000000)" fill="#FFFFFF" fill-rule="nonzero">
            <path d="M0.597701149,53.1 L0,52.7265823 C0.0747126437,52.6518987 4.93103448,44.8848101 15.0172414,38.3126582 C24.2816092,32.1139241 40.045977,25.6911392 62.2356322,29.8734177 L62.0862069,30.6202532 C40.1954023,26.5126582 24.6551724,32.7860759 15.4655172,38.835443 C5.52873563,45.4075949 0.672413793,53.0253165 0.597701149,53.1 Z" id="Path"></path>
            <path d="M37.0574713,29.8734177 C37.0574713,29.8734177 37.2068966,34.8025316 43.3333333,33.9063291 C49.4597701,32.935443 37.0574713,29.8734177 37.0574713,29.8734177 L37.0574713,29.8734177 Z" id="Path"></path>
            <path d="M41.9137931,34.0556962 C41.9137931,34.0556962 41.9137931,34.0556962 41.9137931,34.0556962 C37.1321839,34.0556962 36.908046,29.8734177 36.908046,29.8734177 L36.908046,29.7240506 L37.0574713,29.7240506 C37.8793103,29.9481013 45.2011494,31.8151899 45.1264368,33.0848101 C45.1264368,33.4582278 44.5287356,33.756962 43.3333333,33.9063291 C42.8103448,34.0556962 42.362069,34.0556962 41.9137931,34.0556962 Z M37.1321839,30.0227848 C37.2068966,30.6949367 37.7298851,33.9063291 41.9137931,33.9063291 C42.362069,33.9063291 42.8103448,33.9063291 43.3333333,33.8316456 C44.7528736,33.6075949 44.9770115,33.3088608 44.9770115,33.1594937 C44.9770115,32.2632911 40.3448276,30.7696203 37.1321839,30.0227848 Z" id="Shape"></path>
            <path d="M42.5862069,29.2012658 C42.5862069,29.2012658 42.7356322,34.1303797 48.862069,33.2341772 C55.0632184,32.2632911 42.5862069,29.2012658 42.5862069,29.2012658 L42.5862069,29.2012658 Z" id="Path"></path>
            <path d="M47.5172414,33.3835443 L47.5172414,33.3835443 C42.7356322,33.3835443 42.5862069,29.2012658 42.5114943,29.2012658 L42.5114943,29.0518987 L42.6609195,29.0518987 C43.4827586,29.2759494 50.8045977,31.143038 50.7298851,32.4126582 C50.7298851,32.7860759 50.1321839,33.0848101 48.9367816,33.2341772 C48.4137931,33.3088608 47.9655172,33.3835443 47.5172414,33.3835443 Z M42.7356322,29.2759494 C42.8103448,29.9481013 43.3333333,33.1594937 47.5172414,33.1594937 C47.9655172,33.1594937 48.4137931,33.1594937 48.9367816,33.0848101 C50.3563218,32.8607595 50.5804598,32.5620253 50.5804598,32.4126582 C50.5804598,31.5911392 45.9482759,30.0974684 42.7356322,29.2759494 Z" id="Shape"></path>
            <path d="M54.6149425,29.0518987 C54.6149425,29.0518987 54.6896552,32.4873418 59.0229885,31.8151899 C63.3563218,31.2177215 54.6149425,29.0518987 54.6149425,29.0518987 L54.6149425,29.0518987 Z" id="Path"></path>
            <path d="M58.0517241,31.964557 L58.0517241,31.964557 C54.6896552,31.964557 54.5402299,29.0518987 54.5402299,28.9772152 L54.5402299,28.8278481 L54.6896552,28.8278481 C55.6609195,29.0518987 60.4425287,30.321519 60.3678161,31.2177215 C60.3678161,31.5164557 59.9195402,31.6658228 59.0977011,31.8151899 C58.7241379,31.964557 58.3505747,31.964557 58.0517241,31.964557 Z M54.7643678,29.1265823 C54.8390805,29.6493671 55.2126437,31.8151899 58.0517241,31.8151899 L58.0517241,31.8151899 C58.3505747,31.8151899 58.7241379,31.8151899 59.0229885,31.7405063 C59.9942529,31.5911392 60.1436782,31.3670886 60.1436782,31.2924051 C60.1436782,30.9936709 58.7241379,30.1721519 54.7643678,29.1265823 Z" id="Shape"></path>
            <path d="M48.862069,28.8278481 C48.862069,28.8278481 48.9367816,32.8607595 54.091954,32.1139241 C59.2471264,31.3670886 48.862069,28.8278481 48.862069,28.8278481 L48.862069,28.8278481 Z" id="Path"></path>
            <path d="M52.9712644,32.3379747 C52.9712644,32.3379747 52.9712644,32.3379747 52.9712644,32.3379747 C50.8793103,32.3379747 49.8333333,31.3670886 49.3850575,30.6202532 C48.862069,29.7240506 48.862069,28.9025316 48.862069,28.9025316 L48.862069,28.7531646 L49.0114943,28.7531646 C49.0114943,28.7531646 50.7298851,29.2012658 52.3735632,29.7240506 C55.8103448,30.8443038 55.7356322,31.3670886 55.7356322,31.5911392 C55.7356322,31.8898734 55.2126437,32.1139241 54.2413793,32.2632911 C53.7183908,32.2632911 53.3448276,32.3379747 52.9712644,32.3379747 Z M49.0114943,28.9025316 C49.0862069,29.5 49.5344828,32.1139241 52.9712644,32.1139241 C52.9712644,32.1139241 52.9712644,32.1139241 52.9712644,32.1139241 C53.3448276,32.1139241 53.7183908,32.1139241 54.1666667,32.0392405 C55.362069,31.8898734 55.5114943,31.5911392 55.5114943,31.5164557 C55.5114943,30.8443038 51.5517241,29.5746835 49.0114943,28.9025316 Z" id="Shape"></path>
            <path d="M60.2183908,29.7240506 C60.2183908,29.7240506 60.2931034,32.1886076 63.4310345,31.7405063 C66.5689655,31.3670886 60.2183908,29.7240506 60.2183908,29.7240506 L60.2183908,29.7240506 Z" id="Path"></path>
            <path d="M62.683908,31.964557 L62.683908,31.964557 C60.2183908,31.964557 60.0689655,29.7987342 60.0689655,29.7987342 L60.0689655,29.6493671 L60.2183908,29.6493671 C60.8908046,29.7987342 64.4022989,30.6949367 64.4022989,31.4417722 C64.4022989,31.6658228 64.1034483,31.8151899 63.4310345,31.8898734 C63.2068966,31.8898734 62.908046,31.964557 62.683908,31.964557 Z M60.2931034,29.8734177 C60.3678161,30.321519 60.6666667,31.7405063 62.683908,31.7405063 L62.683908,31.7405063 C62.908046,31.7405063 63.1321839,31.7405063 63.4310345,31.6658228 C64.1781609,31.5911392 64.2528736,31.4417722 64.2528736,31.3670886 C64.2528736,31.0683544 62.2356322,30.3962025 60.2931034,29.8734177 Z" id="Shape"></path>
            <path d="M36.6091954,30.0227848 C36.6091954,30.0227848 36.4597701,25.0936709 42.6609195,25.6911392 C48.862069,26.2886076 36.6091954,30.0227848 36.6091954,30.0227848 L36.6091954,30.0227848 Z" id="Path"></path>
            <path d="M36.4597701,30.1721519 L36.4597701,30.0227848 C36.4597701,29.9481013 36.4597701,28.2303797 37.7298851,26.9607595 C38.7758621,25.8405063 40.4942529,25.3924051 42.6609195,25.6164557 C43.8563218,25.6911392 44.454023,25.9898734 44.5287356,26.3632911 C44.6034483,27.6329114 37.4310345,29.8734177 36.6091954,30.1721519 L36.4597701,30.1721519 Z M41.6896552,25.7658228 C40.045977,25.7658228 38.7011494,26.2139241 37.8793103,27.1101266 C36.8333333,28.1556962 36.683908,29.5 36.683908,29.8734177 C39.8218391,28.9025316 44.3793103,27.1848101 44.3045977,26.3632911 C44.3045977,26.2139241 44.0804598,25.9151899 42.6609195,25.7658228 C42.2873563,25.7658228 41.9885057,25.7658228 41.6896552,25.7658228 Z" id="Shape"></path>
            <path d="M44.0804598,29.2759494 C44.0804598,29.2759494 44.3045977,24.421519 50.4310345,25.3924051 C56.6321839,26.3632911 44.0804598,29.2759494 44.0804598,29.2759494 L44.0804598,29.2759494 Z" id="Path"></path>
            <path d="M44.0057471,29.4253165 L44.0057471,29.2759494 C44.0057471,29.2012658 44.2298851,25.1683544 48.9367816,25.1683544 C49.4597701,25.1683544 49.9827586,25.243038 50.5057471,25.3177215 C51.7011494,25.5417722 52.2988506,25.7658228 52.2988506,26.1392405 C52.3735632,27.4088608 44.9770115,29.1265823 44.1551724,29.3506329 L44.0057471,29.4253165 Z M48.862069,25.3177215 C44.7528736,25.3177215 44.2298851,28.4544304 44.1551724,29.1265823 C47.3678161,28.3797468 52.0747126,26.9607595 52,26.1392405 C52,25.9898734 51.7758621,25.6911392 50.3563218,25.4670886 C49.908046,25.3924051 49.3850575,25.3177215 48.862069,25.3177215 Z" id="Shape"></path>
            <path d="M51.1034483,28.8278481 C51.1034483,28.8278481 51.3275862,24.7949367 56.4827586,25.6911392 C61.5632184,26.6620253 51.1034483,28.8278481 51.1034483,28.8278481 L51.1034483,28.8278481 Z" id="Path"></path>
            <path d="M51.0287356,28.9772152 L51.0287356,28.8278481 C51.0287356,28.8278481 51.2528736,25.4670886 55.0632184,25.4670886 C55.5114943,25.4670886 55.9597701,25.5417722 56.4827586,25.6164557 C57.454023,25.7658228 57.9770115,26.064557 57.9770115,26.3632911 C57.9770115,26.5126582 57.9770115,27.1101266 54.5402299,28.0810127 C52.8965517,28.5291139 51.1781609,28.9025316 51.1781609,28.9025316 L51.0287356,28.9772152 Z M55.0632184,25.6911392 C53.5689655,25.6911392 52.4482759,26.2139241 51.7758621,27.2594937 C51.4022989,27.856962 51.2528736,28.4544304 51.2528736,28.7531646 C53.8678161,28.2303797 57.8275862,27.1101266 57.8275862,26.3632911 C57.8275862,26.2886076 57.6781609,25.9898734 56.4827586,25.7658228 C55.9597701,25.6911392 55.5114943,25.6911392 55.0632184,25.6911392 Z" id="Shape"></path>
            <path d="M55.7356322,29.2012658 C55.7356322,29.2012658 56.1091954,25.7658228 60.3678161,26.8113924 C64.6264368,27.7822785 55.7356322,29.2012658 55.7356322,29.2012658 L55.7356322,29.2012658 Z" id="Path"></path>
            <path d="M55.5862069,29.3506329 L55.5862069,29.2012658 C55.5862069,29.2012658 55.9597701,26.5126582 58.8735632,26.5126582 C59.3218391,26.5126582 59.8448276,26.5873418 60.3678161,26.7367089 C61.1896552,26.9607595 61.637931,27.1848101 61.5632184,27.4835443 C61.5632184,27.7822785 61.2643678,28.1556962 58.5747126,28.8278481 C57.1551724,29.1265823 55.7356322,29.4253165 55.6609195,29.4253165 L55.5862069,29.3506329 Z M58.9482759,26.7367089 C57.7528736,26.7367089 56.9310345,27.1848101 56.3333333,28.0063291 C56.0344828,28.4544304 55.8850575,28.9025316 55.8850575,29.1265823 C58.0517241,28.7531646 61.4137931,28.0063291 61.4885057,27.4835443 C61.4885057,27.4088608 61.4137931,27.1848101 60.4425287,26.9607595 C59.8448276,26.8113924 59.3218391,26.7367089 58.9482759,26.7367089 Z" id="Shape"></path>
            <path d="M59.4712644,29.5746835 C59.4712644,29.5746835 60.0689655,27.1101266 63.0574713,28.2303797 C65.9712644,29.3506329 59.4712644,29.5746835 59.4712644,29.5746835 L59.4712644,29.5746835 Z" id="Path"></path>
            <path d="M59.3218391,29.7240506 L59.3218391,29.5746835 C59.3218391,29.5746835 59.7701149,27.856962 61.5632184,27.856962 C62.0114943,27.856962 62.4597701,27.9316456 62.9827586,28.1556962 C63.5804598,28.3797468 63.8793103,28.6037975 63.8045977,28.8278481 C63.7298851,29.5 60.0689655,29.6493671 59.3965517,29.6493671 L59.3218391,29.7240506 Z M61.5632184,28.0810127 C60.1436782,28.0810127 59.6954023,29.1265823 59.545977,29.5 C61.5632184,29.4253165 63.6551724,29.1265823 63.6551724,28.8278481 C63.6551724,28.8278481 63.6551724,28.678481 62.908046,28.3797468 C62.4597701,28.1556962 62.0114943,28.0810127 61.5632184,28.0810127 Z" id="Shape"></path>
            <path d="M2.83908046,57.8797468 C2.83908046,57.8050633 2.61494253,55.3405063 2.98850575,51.3075949 C1.7183908,52.9506329 1.04597701,53.9962025 1.04597701,54.0708861 L0.373563218,53.6974684 C0.373563218,53.6974684 1.27011494,52.2037975 3.13793103,49.9632911 C3.5862069,46.4531646 4.40804598,42.121519 6.12643678,37.3417722 C9.86206897,26.8860759 18.6034483,12.2481013 38.8505747,2.24050633 L39.1494253,2.91265823 C19.1264368,12.7708861 10.5344828,27.1848101 6.79885057,37.5658228 C5.3045977,41.7481013 4.48275862,45.6316456 4.03448276,48.9177215 C6.5,46.0797468 10.1609195,42.4202532 15.1666667,38.9848101 C24.3563218,32.7113924 39.9712644,25.9898734 62.2356322,29.7987342 L62.0862069,30.5455696 C40.045977,26.8113924 24.6551724,33.3835443 15.5402299,39.5822785 C10.0862069,43.3164557 6.20114943,47.4240506 3.81034483,50.2620253 C3.28735632,54.8177215 3.51149425,57.8050633 3.51149425,57.8050633 L2.83908046,57.8797468 Z" id="Path"></path>
            <path d="M18.6034483,17.4012658 C18.6034483,17.4012658 21.6666667,21.2101266 26.0747126,16.8037975 C30.4827586,12.3227848 18.6034483,17.4012658 18.6034483,17.4012658 L18.6034483,17.4012658 Z" id="Path"></path>
            <path d="M21.8908046,19.0443038 C21.8908046,19.0443038 21.8908046,19.0443038 21.8908046,19.0443038 C19.8735632,19.0443038 18.6034483,17.4759494 18.6034483,17.4759494 L18.5287356,17.4012658 L18.6781609,17.3265823 C18.9022989,17.2518987 24.4310345,14.8620253 26.4482759,14.8620253 C26.8965517,14.8620253 27.1206897,14.9367089 27.1954023,15.1607595 C27.3448276,15.4594937 27.045977,16.056962 26.2241379,16.8037975 C24.7298851,18.2974684 23.3103448,19.0443038 21.8908046,19.0443038 Z" id="Path"></path>
            <path d="M18.8275862,17.4012658 C19.1264368,17.7 20.2471264,18.8202532 21.8908046,18.8202532 L21.8908046,18.8202532 C23.2356322,18.8202532 24.6551724,18.1481013 26,16.7291139 C26.9712644,15.7582278 26.9712644,15.3848101 26.8965517,15.235443 C26.8218391,15.0860759 26.5229885,15.0113924 26.2988506,15.0113924 C24.5804598,15.0860759 19.6494253,17.1025316 18.8275862,17.4012658 Z" id="Path"></path>
            <path d="M22.5632184,13.2936709 C22.5632184,13.2936709 25.6264368,17.1025316 30.0344828,12.6962025 C34.4425287,8.28987342 22.5632184,13.2936709 22.5632184,13.2936709 L22.5632184,13.2936709 Z" id="Path"></path>
            <path d="M25.8505747,14.9367089 L25.8505747,14.9367089 C23.8333333,14.9367089 22.5632184,13.3683544 22.5632184,13.3683544 L22.4137931,13.2936709 L22.5632184,13.2189873 C22.7873563,13.1443038 28.316092,10.7544304 30.3333333,10.7544304 C30.7816092,10.7544304 31.0057471,10.8291139 31.0804598,11.0531646 C31.2298851,11.3518987 30.9310345,11.9493671 30.1091954,12.6962025 C28.6896552,14.1898734 27.1954023,14.9367089 25.8505747,14.9367089 Z M22.7126437,13.3683544 C23.0114943,13.6670886 24.1321839,14.7873418 25.7758621,14.7873418 C27.1206897,14.7873418 28.5402299,14.0405063 29.8850575,12.6962025 C30.8563218,11.7253165 30.8563218,11.3518987 30.7816092,11.2025316 C30.7068966,11.0531646 30.408046,10.978481 30.183908,10.978481 C28.4655172,10.978481 23.5344828,12.9949367 22.7126437,13.3683544 Z" id="Shape"></path>
            <path d="M32.2011494,6.12405063 C32.2011494,6.12405063 34.3678161,8.81265823 37.4310345,5.67594937 C40.4942529,2.61392405 32.2011494,6.12405063 32.2011494,6.12405063 L32.2011494,6.12405063 Z" id="Path"></path>
            <path d="M34.4425287,7.31898734 L34.4425287,7.31898734 C33.0229885,7.31898734 32.1264368,6.27341772 32.1264368,6.19873418 L32.0517241,6.12405063 L32.2011494,6.04936709 C32.3505747,5.97468354 36.2356322,4.33164557 37.6551724,4.33164557 C37.954023,4.33164557 38.1781609,4.40632911 38.1781609,4.5556962 C38.2528736,4.77974684 38.0287356,5.15316456 37.5057471,5.75063291 C36.4597701,6.79620253 35.4885057,7.31898734 34.4425287,7.31898734 Z M32.3505747,6.12405063 C32.5747126,6.34810127 33.3218391,7.09493671 34.4425287,7.09493671 L34.4425287,7.09493671 C35.4137931,7.09493671 36.3850575,6.5721519 37.2816092,5.60126582 C37.954023,4.92911392 37.954023,4.70506329 37.954023,4.63037975 C37.954023,4.5556962 37.8045977,4.48101266 37.5804598,4.48101266 C36.3850575,4.48101266 33.0229885,5.9 32.3505747,6.12405063 Z" id="Shape"></path>
            <path d="M27.4942529,9.41012658 C27.4942529,9.41012658 30.0344828,12.621519 33.6954023,8.88734177 C37.2816092,5.2278481 27.4942529,9.41012658 27.4942529,9.41012658 L27.4942529,9.41012658 Z" id="Path"></path>
            <path d="M30.183908,10.7544304 L30.183908,10.7544304 C28.4655172,10.7544304 27.4942529,9.48481013 27.4195402,9.41012658 L27.3448276,9.33544304 L27.4942529,9.26075949 C27.7183908,9.18607595 32.2758621,7.2443038 33.9195402,7.2443038 C34.2931034,7.2443038 34.5172414,7.31898734 34.591954,7.54303797 C34.7413793,7.84177215 34.4425287,8.28987342 33.7701149,8.96202532 C32.5747126,10.156962 31.3793103,10.7544304 30.183908,10.7544304 Z M27.6436782,9.41012658 C27.9425287,9.70886076 28.8390805,10.5303797 30.183908,10.5303797 C31.3045977,10.5303797 32.4252874,9.93291139 33.6206897,8.81265823 C34.3678161,7.99113924 34.4425287,7.69240506 34.3678161,7.61772152 C34.2931034,7.46835443 34.0689655,7.46835443 33.9195402,7.46835443 C32.4252874,7.46835443 28.3908046,9.11139241 27.6436782,9.41012658 Z" id="Shape"></path>
            <path d="M37.0574713,3.36075949 C37.0574713,3.36075949 38.6264368,5.30253165 40.8678161,3.06202532 C43.1091954,0.746835443 37.0574713,3.36075949 37.0574713,3.36075949 L37.0574713,3.36075949 Z" id="Path"></path>
            <path d="M38.7758621,4.18227848 L38.7758621,4.18227848 C37.7298851,4.18227848 37.0574713,3.36075949 37.0574713,3.36075949 L36.9827586,3.28607595 L37.1321839,3.21139241 C37.2816092,3.13670886 40.045977,1.94177215 41.091954,1.94177215 C41.1666667,1.94177215 41.4655172,1.94177215 41.5402299,2.16582278 C41.6149425,2.38987342 41.4655172,2.61392405 41.0172414,3.06202532 C40.1954023,3.80886076 39.4482759,4.18227848 38.7758621,4.18227848 Z M37.2068966,3.36075949 C37.4310345,3.58481013 37.954023,4.03291139 38.7011494,4.03291139 L38.7011494,4.03291139 C39.3735632,4.03291139 40.045977,3.65949367 40.7931034,2.98734177 C41.316092,2.46455696 41.2413793,2.31518987 41.2413793,2.31518987 C41.2413793,2.24050633 41.091954,2.24050633 41.0172414,2.24050633 C40.1206897,2.16582278 37.8045977,3.13670886 37.2068966,3.36075949 Z" id="Shape"></path>
            <path d="M18.3793103,17.7746835 C18.3793103,17.7746835 15.316092,13.9658228 20.6206897,10.6797468 C25.9252874,7.39367089 18.3793103,17.7746835 18.3793103,17.7746835 L18.3793103,17.7746835 Z" id="Path"></path>
            <path d="M18.3793103,17.9240506 L18.3045977,17.8493671 C18.2298851,17.7746835 17.1091954,16.3556962 17.4827586,14.4886076 C17.7068966,12.9949367 18.7528736,11.7253165 20.6206897,10.6050633 C21.3678161,10.156962 21.816092,9.93291139 22.1896552,9.93291139 C22.4137931,9.93291139 22.5632184,10.0822785 22.637931,10.156962 C23.2356322,11.3518987 19.0517241,17.1772152 18.5287356,17.8493671 L18.3793103,17.9240506 Z M22.1896552,10.156962 C21.8908046,10.156962 21.4425287,10.3810127 20.7701149,10.7544304 C18.9770115,11.8746835 18.0057471,13.1443038 17.7068966,14.4886076 C17.408046,15.9822785 18.1551724,17.2518987 18.454023,17.6253165 C19.7988506,15.7582278 22.9367816,11.1278481 22.4885057,10.2316456 C22.4137931,10.2316456 22.3390805,10.156962 22.1896552,10.156962 Z" id="Shape"></path>
            <path d="M23.908046,12.621519 C23.908046,12.621519 21.1436782,8.58860759 26.6724138,5.67594937 C32.2011494,2.83797468 23.908046,12.621519 23.908046,12.621519 L23.908046,12.621519 Z" id="Path"></path>
            <path d="M23.908046,12.8455696 L23.8333333,12.6962025 C23.7586207,12.621519 22.7873563,11.1278481 23.2356322,9.26075949 C23.6091954,7.84177215 24.7298851,6.5721519 26.5977011,5.60126582 C27.2701149,5.2278481 27.7931034,5.07848101 28.1666667,5.07848101 C28.4655172,5.07848101 28.5402299,5.2278481 28.6149425,5.30253165 C29.137931,6.49746835 24.5057471,12.0240506 23.9827586,12.6962025 L23.908046,12.8455696 Z M28.1666667,5.30253165 C27.8678161,5.30253165 27.3448276,5.45189873 26.7471264,5.82531646 C24.8793103,6.79620253 23.8333333,7.99113924 23.4597701,9.33544304 C23.0862069,10.8291139 23.7586207,12.0987342 23.9827586,12.4721519 C25.4770115,10.6797468 28.9137931,6.27341772 28.4655172,5.37721519 C28.3908046,5.37721519 28.3908046,5.30253165 28.1666667,5.30253165 Z" id="Shape"></path>
            <path d="M29.2873563,8.06582278 C29.2873563,8.06582278 27.045977,4.70506329 31.6781609,2.31518987 C36.3103448,-4.4408921e-16 29.2873563,8.06582278 29.2873563,8.06582278 L29.2873563,8.06582278 Z" id="Path"></path>
            <path d="M29.2873563,8.21518987 L29.2126437,8.14050633 C29.2126437,8.06582278 28.3908046,6.79620253 28.7643678,5.30253165 C29.0632184,4.10759494 30.0344828,3.13670886 31.6034483,2.31518987 C32.2011494,2.0164557 32.5747126,1.86708861 32.8735632,1.86708861 C33.0977011,1.86708861 33.2471264,2.0164557 33.2471264,2.09113924 C33.6954023,3.06202532 29.7356322,7.69240506 29.2873563,8.21518987 L29.2873563,8.21518987 Z M32.8735632,2.0164557 C32.6494253,2.0164557 32.2011494,2.16582278 31.6781609,2.46455696 C30.1091954,3.21139241 29.2126437,4.18227848 28.9137931,5.37721519 C28.6149425,6.5721519 29.0632184,7.61772152 29.2873563,7.99113924 C31.0057471,5.97468354 33.3965517,2.83797468 33.0977011,2.24050633 C33.0977011,2.09113924 33.0977011,2.0164557 32.8735632,2.0164557 Z" id="Shape"></path>
            <path d="M33.1724138,5.60126582 C33.1724138,5.60126582 31.454023,2.61392405 35.4137931,0.896202532 C39.3735632,-0.821518987 33.1724138,5.60126582 33.1724138,5.60126582 L33.1724138,5.60126582 Z" id="Path"></path>
            <path d="M33.1724138,5.75063291 L33.0977011,5.67594937 C33.0977011,5.60126582 32.4252874,4.5556962 32.8735632,3.21139241 C33.1724138,2.24050633 34.0689655,1.41898734 35.4137931,0.821518987 C35.862069,0.597468354 36.2356322,0.52278481 36.4597701,0.52278481 C36.683908,0.52278481 36.8333333,0.597468354 36.8333333,0.746835443 C37.2068966,1.56835443 33.6206897,5.30253165 33.2471264,5.75063291 L33.1724138,5.75063291 Z M36.4597701,0.672151899 C36.2356322,0.672151899 35.9367816,0.746835443 35.4885057,0.970886076 C34.1436782,1.56835443 33.3218391,2.31518987 33.0229885,3.28607595 C32.7241379,4.25696203 33.0229885,5.15316456 33.1724138,5.45189873 C34.6666667,3.8835443 36.8333333,1.3443038 36.6091954,0.746835443 C36.683908,0.746835443 36.6091954,0.672151899 36.4597701,0.672151899 Z" id="Shape"></path>
            <path d="M36.3850575,3.65949367 C36.3850575,3.65949367 35.4137931,1.3443038 38.4770115,0.448101266 C41.4655172,-0.448101266 36.3850575,3.65949367 36.3850575,3.65949367 L36.3850575,3.65949367 Z" id="Path"></path>
            <path d="M36.3103448,3.80886076 L36.3103448,3.73417722 C36.3103448,3.73417722 35.9367816,2.83797468 36.3103448,1.94177215 C36.6091954,1.26962025 37.3563218,0.746835443 38.4022989,0.448101266 C39.0747126,0.224050633 39.3735632,0.298734177 39.4482759,0.52278481 C39.6724138,1.19493671 36.9827586,3.43544304 36.3850575,3.8835443 L36.3103448,3.80886076 Z M39.1494253,0.448101266 C39,0.448101266 38.7758621,0.52278481 38.4770115,0.597468354 C37.5057471,0.896202532 36.8333333,1.3443038 36.5344828,2.0164557 C36.2356322,2.68860759 36.3850575,3.28607595 36.4597701,3.58481013 C37.8045977,2.53924051 39.4482759,0.896202532 39.3735632,0.52278481 C39.2988506,0.448101266 39.1494253,0.448101266 39.1494253,0.448101266 Z" id="Shape"></path>
            <path d="M3.73563218,58.4025316 C3.73563218,58.3278481 2.83908046,49.2164557 6.64942529,37.7898734 C10.2356322,27.2594937 18.6781609,12.5468354 38.7011494,2.16582278 L39.0747126,2.83797468 C19.2011494,13.0696203 10.908046,27.6329114 7.39655172,38.0886076 C3.5862069,49.2911392 4.48275862,58.2531646 4.48275862,58.3278481 L3.73563218,58.4025316 Z" id="Path"></path>
        </g>
    </g>
</svg>