<?xml version="1.0" encoding="UTF-8"?>
<svg width="100px" height="100px" viewBox="0 0 100 100" version="1.1" xmlns="http://www.w3.org/2000/svg" xmlns:xlink="http://www.w3.org/1999/xlink">
    <!-- Generator: Sketch 53.2 (72643) - https://sketchapp.com -->
    <title>iPhone 8 Copy</title>
    <desc>Created with Sketch.</desc>
    <g id="iPhone-8-Copy" stroke="none" stroke-width="1" fill="none" fill-rule="evenodd">
        <g id="Group" fill-rule="nonzero">
            <path d="M50.001,0 C22.387,0 0,22.386 0,49.999 C0,77.613 22.387,100 50.001,100 C77.615,100 100,77.613 100,49.999 C100,22.386 77.615,0 50.001,0 Z" id="Shape" fill="#F29E2B"></path>
            <path d="M23.5237624,72.0485149 C21.8316832,72.9237624 21.2485149,72.0485149 21.2485149,72.0485149 C21.2485149,72.0485149 19.0009901,68.7524752 17.9514851,67.1188119 C17.0554455,65.7267327 18.0920792,64.8742574 18.4178218,64.6534653 L20.1594059,67.4039604 L21.7613861,66.390099 L20.0920792,63.7514851 L22.3148515,62.5693069 L24.0455446,65.3049505 L25.6485149,64.290099 L23.9920792,61.6742574 L26.2435644,60.4752475 L27.8891089,63.2059406 L29.5138614,62.2277228 L27.919802,59.5831683 L28.4772277,59.2851485 L27.1564356,57.2584158 C27.1564356,57.2584158 18.9712871,61.5475248 16.3455446,63.1227723 C13.719802,64.6980198 15.2376238,67.6158416 15.2376238,67.6158416 C15.2376238,67.6158416 18.1168317,71.5049505 19.349505,73.8019802 C20.8386139,76.5732673 24.1940594,74.8811881 24.1940594,74.8811881 L32.6554455,68.6445545 L31.3425743,66.6237624 C31.3425743,66.6217822 25.2158416,71.1732673 23.5237624,72.0485149 Z" id="Path" fill="#FFFFFF"></path>
            <path d="M82.6633663,62.5960396 C80.0376238,61.0207921 71.8524752,56.7316832 71.8524752,56.7316832 L70.5316832,58.7584158 L71.0891089,59.0564356 L69.4950495,61.7 L71.119802,62.6792079 L72.7653465,59.9485149 L75.0168317,61.1475248 L73.3613861,63.7623762 L74.9643564,64.7762376 L76.6950495,62.0405941 L78.9178218,63.2247525 L77.2485149,65.8613861 L78.850495,66.8762376 L80.5920792,64.1257426 C80.9178218,64.3475248 81.9544554,65.1990099 81.0584158,66.5920792 C80.0079208,68.2237624 77.7613861,71.5217822 77.7613861,71.5217822 C77.7613861,71.5217822 77.1782178,72.3970297 75.4861386,71.5217822 C73.7940594,70.6445545 67.6673267,66.0950495 67.6673267,66.0950495 L66.3544554,68.1188119 L74.8158416,74.3534653 C74.8158416,74.3534653 78.1712871,76.0455446 79.660396,73.2742574 C80.8930693,70.9772277 83.7722772,67.090099 83.7722772,67.090099 C83.7722772,67.090099 85.290099,64.1712871 82.6633663,62.5960396 Z" id="Path" fill="#FFFFFF"></path>
            <path d="M72.4950495,51.3524752 C72.4950495,51.3524752 77.0465347,43.3 72.4950495,35.5990099 C68.3564356,28.5960396 57.9980198,27.4554455 52.6425743,33.8851485 C52.6405941,33.8851485 52.6405941,33.8851485 52.6386139,33.8861386 C52.6277228,33.9 52.6158416,33.9168317 52.6039604,33.9346535 C52.3633663,34.2257426 52.1346535,34.5366337 51.9148515,34.860396 C51.6940594,34.9049505 51.4247525,34.6079208 51.0574257,33.539604 C50.2009901,31.049505 53.2356436,27.3148515 54.7138614,25.5257426 C56.1920792,23.7356436 55.180198,23.2693069 55.180198,23.2693069 C51.5247525,23.4247525 49.4435644,27.7039604 49.4435644,27.7039604 C48.9980198,26.7712871 47.2455446,25.0594059 47.2455446,25.0594059 C44.2881188,12.9227723 31.9178218,18.4455446 31.9178218,18.4455446 C32.5405941,29.4148515 45.8653465,28.6138614 44.4435644,27.5485149 C41.6435644,25.4485149 40.7881188,22.880198 40.7881188,22.880198 C49.2673267,27.4712871 49.190099,32.2930693 48.9564356,34.1613861 C48.8138614,35.2960396 47.8693069,35.1940594 47.149505,34.9415842 C42.0920792,27.3594059 30.8673267,28.2376238 26.5158416,35.6 C21.9643564,43.3009901 26.5158416,51.3534653 26.5158416,51.3534653 C26.5158416,51.3534653 27.9287129,53.7722772 31.4207921,58.7564356 C35.1524752,64.0742574 32.0594059,68.6831683 35.8732673,72.439604 C41.6287129,78.1049505 49.5059406,72.5930693 49.5059406,72.5930693 C49.5059406,72.5930693 57.3821782,78.1039604 63.1376238,72.439604 C66.9534653,68.6831683 63.8594059,64.0742574 67.5881188,58.7564356 C71.0821782,53.7722772 72.4950495,51.3524752 72.4950495,51.3524752 Z M61.7792079,33.0475248 C62.5594059,32.1039604 64.4267327,32.3594059 65.949505,33.6178218 C67.4732673,34.8762376 68.0762376,36.6623762 67.2960396,37.6069307 C66.5158416,38.549505 64.6475248,38.2950495 63.1247525,37.0356436 C61.6019802,35.7762376 60.9980198,33.990099 61.7792079,33.0475248 Z M67.7732673,42.5891089 C67.3673267,43.0693069 66.4059406,42.9257426 65.6277228,42.270297 C64.8485149,41.6128713 64.5455446,40.6910891 64.9514851,40.2118812 C65.3564356,39.7326733 66.3158416,39.8762376 67.0950495,40.5326733 C67.8762376,41.1891089 68.1782178,42.109901 67.7732673,42.5891089 Z M49.5049505,60.0277228 C43.1683168,60.0277228 43.1821782,59.8386139 34.6128713,59.2128713 C33.7663366,57.4475248 32.1970297,55.7376238 31.2257426,54.1732673 C29.4752475,51.3514851 29.0475248,49.1366337 29.0475248,49.1366337 C29.0475248,49.1366337 30.3287129,49.3544554 32.3574257,49.6475248 L32.3574257,52.1950495 L34.2544554,52.1950495 L34.2544554,49.909901 C35.3188119,50.0514851 36.5019802,50.1990099 37.7574257,50.3415842 L37.7574257,53.2465347 L39.6534653,53.2465347 L39.6534653,50.5445545 C40.7930693,50.660396 41.970297,50.7653465 43.1574257,50.8544554 L43.1574257,54.1752475 L45.0534653,54.1752475 L45.0534653,50.980198 C46.2386139,51.0475248 47.4148515,51.0930693 48.5574257,51.1118812 L48.5574257,54.7039604 L50.4524752,54.7039604 L50.4524752,51.1128713 C51.6207921,51.0990099 52.7950495,51.0574257 53.9564356,50.9980198 L53.9564356,54.1752475 L55.8524752,54.1752475 L55.8524752,50.8831683 C57.0534653,50.7990099 58.2287129,50.6980198 59.3564356,50.5881188 L59.3564356,53.2465347 L61.2524752,53.2465347 L61.2524752,50.3871287 C62.5178218,50.2445545 63.6980198,50.0950495 64.7554455,49.9514851 L64.7554455,52.1960396 L66.6524752,52.1960396 L66.6524752,49.680198 C68.7019802,49.3712871 69.9623762,49.1376238 69.9623762,49.1376238 C69.9623762,49.1376238 69.5336634,51.3524752 67.7841584,54.1742574 C66.8138614,55.7386139 65.1811881,57.4485149 64.3326733,59.2138614 C64.3326733,59.2128713 55.4643564,60.0277228 49.5049505,60.0277228 Z" id="Shape" fill="#FFFFFF"></path>
        </g>
    </g>
</svg>