<?xml version="1.0" encoding="UTF-8"?>
<svg width="100px" height="100px" viewBox="0 0 100 100" version="1.1" xmlns="http://www.w3.org/2000/svg" xmlns:xlink="http://www.w3.org/1999/xlink">
    <!-- Generator: Sketch 53.2 (72643) - https://sketchapp.com -->
    <title>iPhone 8 Copy 4</title>
    <desc>Created with Sketch.</desc>
    <g id="iPhone-8-Copy-4" stroke="none" stroke-width="1" fill="none" fill-rule="evenodd">
        <path d="M50.001,0 C22.387,0 0,22.386 0,49.999 C0,77.613 22.387,100 50.001,100 C77.615,100 100,77.613 100,49.999 C100,22.386 77.615,0 50.001,0 Z" id="Path" fill="#F0400B" fill-rule="nonzero"></path>
        <g id="noun_olive-oil_15338932718e86a59e937e3c875da9bc1de4690d8a6b033fe6f94e44e9f904daaf7562" transform="translate(30.000000, 17.000000)" fill="#FFFFFF" fill-rule="nonzero">
            <path d="M20.294,8.56808247 C21.768,12.1289897 23.6386667,16.0791753 25.4906667,19.0489072 C26.4146667,20.5314639 27.3866667,22.0166598 28.3266667,23.4523711 C30.9166667,27.4098144 33.5946667,31.5011959 35.3873333,35.7548866 C36.8513333,39.2326598 38.8213333,45.9579381 35.5626667,51.9277526 C33.2126667,56.2329072 28.6213333,59.4850309 23.5793333,60.4133608 C22.4553333,60.6198763 21.3126667,60.7261031 20.1786667,60.7261031 C11.1986667,60.7261031 3.544,54.2442887 2.75133333,45.9691546 C1.95333333,37.6412371 6.892,30.422433 12.1213333,22.7793814 C14.8006667,18.8641649 17.57,14.8156701 19.4806667,10.6081649 C19.7626667,9.98597938 20.0353333,9.29187629 20.294,8.56808247 L20.294,8.56808247 Z M20.0986667,0 C19.918,0 18.6073333,6.08989691 17.0473333,9.52676289 C11.624,21.4743093 -1.23933333,32.281732 0.0966666667,46.2185567 C1.04066667,56.0705979 10,63.3652784 20.1786667,63.3652784 C21.4593333,63.3652784 22.762,63.2498144 24.0673333,63.0089897 C29.9293333,61.9275876 35.1926667,58.156866 37.9086667,53.1813608 C41.0646667,47.4002474 40.316,40.5997526 37.8486667,34.7394639 C35.2993333,28.6891546 31.246,23.2564124 27.76,17.6633402 C24.2586667,12.0504742 20.6646667,2.66424742 20.1133333,0.0250721649 C20.1106667,0.00791752577 20.1053333,0 20.0986667,0 L20.0986667,0 Z M27.33,35.9739381 C27.7393333,39.0413196 27.9413333,41.7854021 28.018,44.8356289 C28.0593333,46.5128247 28.6286667,49.6329897 31.186,49.1427629 C36.778,48.0771959 33.208,37.952 32,34.9690722 C30.1286667,30.3478763 28.666,27.7113402 23.3333333,19.7938144 C23.306,19.7529072 26.396,28.9794639 27.33,35.9739381 Z" id="Shape"></path>
        </g>
    </g>
</svg>