<?xml version="1.0" encoding="UTF-8"?>
<svg width="100px" height="100px" viewBox="0 0 100 100" version="1.1" xmlns="http://www.w3.org/2000/svg" xmlns:xlink="http://www.w3.org/1999/xlink">
    <!-- Generator: Sketch 53.2 (72643) - https://sketchapp.com -->
    <title>iPhone 8 Copy 2</title>
    <desc>Created with Sketch.</desc>
    <g id="iPhone-8-Copy-2" stroke="none" stroke-width="1" fill="none" fill-rule="evenodd">
        <path d="M50.001,0 C22.387,0 0,22.386 0,49.999 C0,77.613 22.387,100 50.001,100 C77.615,100 100,77.613 100,49.999 C100,22.386 77.615,0 50.001,0 Z" id="Path" fill="#A8DE08" fill-rule="nonzero"></path>
        <g id="noun_protein_1884366c9ee63b1d6cceec200a1e9d903661b351cd7ffa370e68e69d1229ba93cb2192c" transform="translate(22.000000, 22.000000)" fill="#FFFFFF" fill-rule="nonzero">
            <circle id="Oval" cx="48.5" cy="11.5" r="2.5"></circle>
            <circle id="Oval" cx="45" cy="24" r="5"></circle>
            <path d="M55.947,11.155 L55.947,11.155 C55.534996,7.44642529 52.6278618,4.50741738 48.924,4.055 C48.6232119,4.02035173 48.3207705,4.0019916 48.018,4 C46.0715237,3.99574058 44.1933162,4.71700362 42.75,6.023 C41.0286675,7.57181627 40.0470157,9.77944205 40.05,12.095 C40.0707276,13.8261502 39.3892245,15.4918462 38.161,16.712 C36.1081304,18.7576771 34.9688477,21.545991 35.0018001,24.4439183 C35.0347524,27.3418456 36.2371444,30.1035322 38.336,32.102 C40.4099811,34.0835431 43.2132367,35.1156162 46.077,34.952 C51.5072034,34.583258 55.7846271,30.1777186 55.993,24.739 C56.0155423,24.1543474 55.9914661,23.5688281 55.921,22.988 C55.486876,19.7628768 55.486876,16.4941232 55.921,13.269 C56.0197438,12.5683225 56.0284813,11.8578941 55.947,11.155 Z M45,31 C41.1340068,31 38,27.8659932 38,24 C38,20.1340068 41.1340068,17 45,17 C48.8659932,17 52,20.1340068 52,24 C51.9955914,27.8641657 48.8641657,30.9955914 45,31 Z M48.5,16 C46.0147186,16 44,13.9852814 44,11.5 C44,9.01471863 46.0147186,7 48.5,7 C50.9852814,7 53,9.01471863 53,11.5 C53,12.6934742 52.5258942,13.8380668 51.6819805,14.6819805 C50.8380668,15.5258942 49.6934742,16 48.5,16 Z" id="Shape"></path>
            <circle id="Oval" cx="16.176" cy="45.5" r="2.5"></circle>
            <path d="M5.676,45.5 C5.68161817,51.1874547 10.2145076,55.8365039 15.9,55.986 L17.6,55.892 C22.7588974,55.1918958 26.6229254,50.8127742 26.6753584,45.6068527 C26.7277914,40.4009312 22.9527496,35.9448705 17.809,35.141 L16.947,35.041 C16.691,35.022 16.434,35.001 16.173,35.001 C10.378313,35.0092643 5.6831603,39.7053115 5.676,45.5 L5.676,45.5 Z M16.176,41 C18.6612814,41 20.676,43.0147186 20.676,45.5 C20.676,47.9852814 18.6612814,50 16.176,50 C13.6907186,50 11.676,47.9852814 11.676,45.5 C11.6787556,43.0158609 13.6918609,41.0027556 16.176,41 L16.176,41 Z" id="Shape"></path>
            <path d="M54.011,40.076 C53.118664,39.8687681 52.1805316,40.0797521 51.4628413,40.6490756 C50.745151,41.2183991 50.3262423,42.0839176 50.325,43 C50.325,43.5522847 49.8772847,44 49.325,44 L43.676,44 L43.676,47 L49.325,47 C49.8772847,47 50.325,47.4477153 50.325,48 C50.3231024,49.5139252 51.4494959,50.7920334 52.9516533,50.9804387 C54.4538106,51.168844 55.8609578,50.2085005 56.233,48.741 C56.4664103,47.8265621 56.2482144,46.8556463 55.646,46.129 C55.3497461,45.7623666 55.3497461,45.2386334 55.646,44.872 C56.2482144,44.1453537 56.4664103,43.1744379 56.233,42.26 C55.9580622,41.174313 55.1012676,40.3321711 54.011,40.076 L54.011,40.076 Z" id="Path"></path>
            <path d="M41.676,47.552 L41.676,43.5 L41.689,43.5 L38.06,40.678 C34.934664,38.2459282 31.2031028,36.7159535 27.27,36.254 L24.154,35.887 C27.118948,38.3390553 28.7856082,42.0227424 28.6700819,45.8685382 C28.5545555,49.714334 26.6697867,53.2913375 23.563,55.561 L25.713,55.441 C30.6062643,55.1621829 35.2628112,53.2425639 38.931,49.992 L41.676,47.552 Z" id="Path"></path>
            <path d="M25,0 C27.415,0 29.435,2.581 29.9,6 L20.1,6 C20.566,2.581 22.586,0 25,0 Z M20.017,8 L29.983,8 C29.81,11.9 27.645,15 25,15 C22.355,15 20.19,11.9 20.017,8 Z" id="Shape"></path>
            <path d="M20.172,22 L19,22 L19,24.0000366 L20.172,24 C21.9228864,24.0053701 23.6242248,23.4189933 25,22.336 C26.3758895,23.4187838 28.0771527,24.0051347 29.828,24 L31,24.0000366 L31,22 L29.828,22 C28.4190488,22.0021121 27.0578095,21.4896916 26,20.559 L26,16.892 L24,16.892 L24,20.559 C22.9423352,21.4899326 21.5810013,22.0023888 20.172,22 Z" id="Path"></path>
            <path d="M10.008,18 L4.008,18 C1.798861,18 0.008,16.209139 0.008,14 C0.008,12.8954305 0.9034305,12 2.008,12 L4.008,12 L4.008,13 L10.008,13 L10.008,12 L12.008,12 C13.1125695,12 14.008,12.8954305 14.008,14 C14.008,16.209139 12.217139,18 10.008,18 Z" id="Path"></path>
            <path d="M10,30 L4,30 C1.790861,30 0,28.209139 0,26 C0,24.8954305 0.8954305,24 2,24 L4,24 L4,25 L10,25 L10,24 L12,24 C13.1045695,24 14,24.8954305 14,26 C14,28.209139 12.209139,30 10,30 Z" id="Path"></path>
        </g>
    </g>
</svg>